<mxfile host="app.diagrams.net" modified="2021-08-31T00:49:49.129Z" agent="5.0 (Windows NT 10.0; Win64; x64) AppleWebKit/537.36 (KHTML, like Gecko) Chrome/92.0.4515.159 Safari/537.36" etag="W6LgWGphRmYJ00iI-ctO" version="14.9.9" type="github">
  <diagram name="Diagrama de Clases" id="b5b7bab2-c9e2-2cf4-8b2a-24fd1a2a6d21">
    <mxGraphModel dx="3764" dy="1520" grid="1" gridSize="10" guides="1" tooltips="1" connect="1" arrows="1" fold="1" page="1" pageScale="1" pageWidth="1169" pageHeight="827" background="none" math="0" shadow="0">
      <root>
        <mxCell id="0" />
        <mxCell id="1" parent="0" />
        <mxCell id="NQRFba9yrne1NyJjNi_C-1" value="Comprador" style="shape=umlActor;verticalLabelPosition=bottom;verticalAlign=top;html=1;" parent="1" vertex="1">
          <mxGeometry x="-1120" y="118" width="60" height="120" as="geometry" />
        </mxCell>
        <mxCell id="NQRFba9yrne1NyJjNi_C-4" value="Vendedor" style="shape=umlActor;verticalLabelPosition=bottom;verticalAlign=top;html=1;" parent="1" vertex="1">
          <mxGeometry x="-180" y="118" width="60" height="120" as="geometry" />
        </mxCell>
        <mxCell id="NQRFba9yrne1NyJjNi_C-6" value="Comprador" style="swimlane;fontStyle=1;align=center;verticalAlign=top;childLayout=stackLayout;horizontal=1;startSize=26;horizontalStack=0;resizeParent=1;resizeParentMax=0;resizeLast=0;collapsible=1;marginBottom=0;" parent="1" vertex="1">
          <mxGeometry x="-983" y="128" width="160" height="210" as="geometry">
            <mxRectangle x="630" y="10" width="100" height="26" as="alternateBounds" />
          </mxGeometry>
        </mxCell>
        <mxCell id="NQRFba9yrne1NyJjNi_C-7" value="-customerName: string&#xa;-address: string&#xa;-creditCardInfo: string&#xa;-shippingInfo: string" style="text;strokeColor=none;fillColor=none;align=left;verticalAlign=top;spacingLeft=4;spacingRight=4;overflow=hidden;rotatable=0;points=[[0,0.5],[1,0.5]];portConstraint=eastwest;" parent="NQRFba9yrne1NyJjNi_C-6" vertex="1">
          <mxGeometry y="26" width="160" height="74" as="geometry" />
        </mxCell>
        <mxCell id="NQRFba9yrne1NyJjNi_C-8" value="" style="line;strokeWidth=1;fillColor=none;align=left;verticalAlign=middle;spacingTop=-1;spacingLeft=3;spacingRight=3;rotatable=0;labelPosition=right;points=[];portConstraint=eastwest;" parent="NQRFba9yrne1NyJjNi_C-6" vertex="1">
          <mxGeometry y="100" width="160" height="8" as="geometry" />
        </mxCell>
        <mxCell id="NQRFba9yrne1NyJjNi_C-9" value="+register()&#xa;+login()&#xa;+updateProfile()&#xa;+shopping()&#xa;+shoppingHistory()&#xa;+writeReview()" style="text;strokeColor=none;fillColor=none;align=left;verticalAlign=top;spacingLeft=4;spacingRight=4;overflow=hidden;rotatable=0;points=[[0,0.5],[1,0.5]];portConstraint=eastwest;" parent="NQRFba9yrne1NyJjNi_C-6" vertex="1">
          <mxGeometry y="108" width="160" height="102" as="geometry" />
        </mxCell>
        <mxCell id="NQRFba9yrne1NyJjNi_C-11" value="Vendedor" style="swimlane;fontStyle=1;align=center;verticalAlign=top;childLayout=stackLayout;horizontal=1;startSize=26;horizontalStack=0;resizeParent=1;resizeParentMax=0;resizeLast=0;collapsible=1;marginBottom=0;" parent="1" vertex="1">
          <mxGeometry x="-430" y="118" width="160" height="180" as="geometry">
            <mxRectangle x="630" y="10" width="100" height="26" as="alternateBounds" />
          </mxGeometry>
        </mxCell>
        <mxCell id="NQRFba9yrne1NyJjNi_C-12" value="-sellerName: string&#xa;-phoneNumber: int" style="text;strokeColor=none;fillColor=none;align=left;verticalAlign=top;spacingLeft=4;spacingRight=4;overflow=hidden;rotatable=0;points=[[0,0.5],[1,0.5]];portConstraint=eastwest;" parent="NQRFba9yrne1NyJjNi_C-11" vertex="1">
          <mxGeometry y="26" width="160" height="44" as="geometry" />
        </mxCell>
        <mxCell id="NQRFba9yrne1NyJjNi_C-13" value="" style="line;strokeWidth=1;fillColor=none;align=left;verticalAlign=middle;spacingTop=-1;spacingLeft=3;spacingRight=3;rotatable=0;labelPosition=right;points=[];portConstraint=eastwest;" parent="NQRFba9yrne1NyJjNi_C-11" vertex="1">
          <mxGeometry y="70" width="160" height="8" as="geometry" />
        </mxCell>
        <mxCell id="NQRFba9yrne1NyJjNi_C-14" value="+register()&#xa;+login()&#xa;+updateProfile()&#xa;+salesHistory()&#xa;+createItem()&#xa;+updateItem()" style="text;strokeColor=none;fillColor=none;align=left;verticalAlign=top;spacingLeft=4;spacingRight=4;overflow=hidden;rotatable=0;points=[[0,0.5],[1,0.5]];portConstraint=eastwest;" parent="NQRFba9yrne1NyJjNi_C-11" vertex="1">
          <mxGeometry y="78" width="160" height="102" as="geometry" />
        </mxCell>
        <mxCell id="NQRFba9yrne1NyJjNi_C-15" value="Usuario" style="swimlane;fontStyle=1;align=center;verticalAlign=top;childLayout=stackLayout;horizontal=1;startSize=26;horizontalStack=0;resizeParent=1;resizeParentMax=0;resizeLast=0;collapsible=1;marginBottom=0;" parent="1" vertex="1">
          <mxGeometry x="-709" y="88" width="160" height="160" as="geometry">
            <mxRectangle x="630" y="10" width="100" height="26" as="alternateBounds" />
          </mxGeometry>
        </mxCell>
        <mxCell id="NQRFba9yrne1NyJjNi_C-16" value="-userID: int&#xa;-password: string&#xa;-email: string&#xa;-nickname: string&#xa;-loginStatus: string&#xa;-registerDate: date" style="text;strokeColor=none;fillColor=none;align=left;verticalAlign=top;spacingLeft=4;spacingRight=4;overflow=hidden;rotatable=0;points=[[0,0.5],[1,0.5]];portConstraint=eastwest;" parent="NQRFba9yrne1NyJjNi_C-15" vertex="1">
          <mxGeometry y="26" width="160" height="94" as="geometry" />
        </mxCell>
        <mxCell id="NQRFba9yrne1NyJjNi_C-17" value="" style="line;strokeWidth=1;fillColor=none;align=left;verticalAlign=middle;spacingTop=-1;spacingLeft=3;spacingRight=3;rotatable=0;labelPosition=right;points=[];portConstraint=eastwest;" parent="NQRFba9yrne1NyJjNi_C-15" vertex="1">
          <mxGeometry y="120" width="160" height="8" as="geometry" />
        </mxCell>
        <mxCell id="NQRFba9yrne1NyJjNi_C-18" value="+verifyLogin(): bool" style="text;strokeColor=none;fillColor=none;align=left;verticalAlign=top;spacingLeft=4;spacingRight=4;overflow=hidden;rotatable=0;points=[[0,0.5],[1,0.5]];portConstraint=eastwest;" parent="NQRFba9yrne1NyJjNi_C-15" vertex="1">
          <mxGeometry y="128" width="160" height="32" as="geometry" />
        </mxCell>
        <mxCell id="NQRFba9yrne1NyJjNi_C-25" value="Extends" style="endArrow=block;endSize=16;endFill=0;html=1;entryX=0;entryY=0.5;entryDx=0;entryDy=0;exitX=1;exitY=0.5;exitDx=0;exitDy=0;edgeStyle=elbowEdgeStyle;" parent="1" source="NQRFba9yrne1NyJjNi_C-7" target="NQRFba9yrne1NyJjNi_C-16" edge="1">
          <mxGeometry width="160" relative="1" as="geometry">
            <mxPoint x="-770" y="213" as="sourcePoint" />
            <mxPoint x="-580" y="338" as="targetPoint" />
          </mxGeometry>
        </mxCell>
        <mxCell id="NQRFba9yrne1NyJjNi_C-26" value="Extends" style="endArrow=block;endSize=16;endFill=0;html=1;entryX=0.996;entryY=0.615;entryDx=0;entryDy=0;entryPerimeter=0;exitX=0;exitY=0.5;exitDx=0;exitDy=0;edgeStyle=elbowEdgeStyle;" parent="1" source="NQRFba9yrne1NyJjNi_C-12" target="NQRFba9yrne1NyJjNi_C-16" edge="1">
          <mxGeometry width="160" relative="1" as="geometry">
            <mxPoint x="-810" y="398" as="sourcePoint" />
            <mxPoint x="-650" y="398" as="targetPoint" />
          </mxGeometry>
        </mxCell>
        <mxCell id="NQRFba9yrne1NyJjNi_C-48" value="Compra" style="swimlane;fontStyle=1;align=center;verticalAlign=top;childLayout=stackLayout;horizontal=1;startSize=26;horizontalStack=0;resizeParent=1;resizeParentMax=0;resizeLast=0;collapsible=1;marginBottom=0;" parent="1" vertex="1">
          <mxGeometry x="-709" y="348" width="160" height="160" as="geometry">
            <mxRectangle x="630" y="10" width="100" height="26" as="alternateBounds" />
          </mxGeometry>
        </mxCell>
        <mxCell id="NQRFba9yrne1NyJjNi_C-49" value="-purchaseID: int&#xa;-userID_Client_FK: int&#xa;-userID_Seller_FK: int&#xa;-purchaseDetail_ID_FK: int&#xa;-reviewID_FK: int" style="text;strokeColor=none;fillColor=none;align=left;verticalAlign=top;spacingLeft=4;spacingRight=4;overflow=hidden;rotatable=0;points=[[0,0.5],[1,0.5]];portConstraint=eastwest;" parent="NQRFba9yrne1NyJjNi_C-48" vertex="1">
          <mxGeometry y="26" width="160" height="84" as="geometry" />
        </mxCell>
        <mxCell id="NQRFba9yrne1NyJjNi_C-50" value="" style="line;strokeWidth=1;fillColor=none;align=left;verticalAlign=middle;spacingTop=-1;spacingLeft=3;spacingRight=3;rotatable=0;labelPosition=right;points=[];portConstraint=eastwest;" parent="NQRFba9yrne1NyJjNi_C-48" vertex="1">
          <mxGeometry y="110" width="160" height="10" as="geometry" />
        </mxCell>
        <mxCell id="NQRFba9yrne1NyJjNi_C-51" value="+makePurchase()&#xa;+showPurchase()" style="text;strokeColor=none;fillColor=none;align=left;verticalAlign=top;spacingLeft=4;spacingRight=4;overflow=hidden;rotatable=0;points=[[0,0.5],[1,0.5]];portConstraint=eastwest;" parent="NQRFba9yrne1NyJjNi_C-48" vertex="1">
          <mxGeometry y="120" width="160" height="40" as="geometry" />
        </mxCell>
        <mxCell id="NQRFba9yrne1NyJjNi_C-52" value="1" style="edgeLabel;resizable=0;html=1;align=left;verticalAlign=top;" parent="1" connectable="0" vertex="1">
          <mxGeometry x="-310.00000000000017" y="347.99800000000005" as="geometry">
            <mxPoint x="81" y="-22" as="offset" />
          </mxGeometry>
        </mxCell>
        <mxCell id="NQRFba9yrne1NyJjNi_C-53" value="" style="endArrow=open;endFill=1;endSize=12;html=1;entryX=0.5;entryY=0;entryDx=0;entryDy=0;" parent="1" source="NQRFba9yrne1NyJjNi_C-14" target="NQRFba9yrne1NyJjNi_C-76" edge="1">
          <mxGeometry width="160" relative="1" as="geometry">
            <mxPoint x="-500" y="408" as="sourcePoint" />
            <mxPoint x="-390" y="478" as="targetPoint" />
          </mxGeometry>
        </mxCell>
        <mxCell id="NQRFba9yrne1NyJjNi_C-54" value="1" style="edgeLabel;resizable=0;html=1;align=left;verticalAlign=top;" parent="1" connectable="0" vertex="1">
          <mxGeometry x="-380.00000000000017" y="297.99800000000005" as="geometry">
            <mxPoint x="12" y="6" as="offset" />
          </mxGeometry>
        </mxCell>
        <mxCell id="NQRFba9yrne1NyJjNi_C-55" value="N" style="edgeLabel;resizable=0;html=1;align=left;verticalAlign=top;" parent="1" connectable="0" vertex="1">
          <mxGeometry x="-380.00000000000017" y="447.99800000000005" as="geometry">
            <mxPoint x="10" y="-17" as="offset" />
          </mxGeometry>
        </mxCell>
        <mxCell id="NQRFba9yrne1NyJjNi_C-56" value="DetalleCompra" style="swimlane;fontStyle=1;align=center;verticalAlign=top;childLayout=stackLayout;horizontal=1;startSize=26;horizontalStack=0;resizeParent=1;resizeParentMax=0;resizeLast=0;collapsible=1;marginBottom=0;" parent="1" vertex="1">
          <mxGeometry x="-983" y="478" width="160" height="170" as="geometry">
            <mxRectangle x="630" y="10" width="100" height="26" as="alternateBounds" />
          </mxGeometry>
        </mxCell>
        <mxCell id="NQRFba9yrne1NyJjNi_C-57" value="-purchaseDetail_ID: int&#xa;-productID_FK: int&#xa;-quantity: int&#xa;-subtotal: float&#xa;-purchaseDate: date" style="text;strokeColor=none;fillColor=none;align=left;verticalAlign=top;spacingLeft=4;spacingRight=4;overflow=hidden;rotatable=0;points=[[0,0.5],[1,0.5]];portConstraint=eastwest;" parent="NQRFba9yrne1NyJjNi_C-56" vertex="1">
          <mxGeometry y="26" width="160" height="84" as="geometry" />
        </mxCell>
        <mxCell id="NQRFba9yrne1NyJjNi_C-58" value="" style="line;strokeWidth=1;fillColor=none;align=left;verticalAlign=middle;spacingTop=-1;spacingLeft=3;spacingRight=3;rotatable=0;labelPosition=right;points=[];portConstraint=eastwest;" parent="NQRFba9yrne1NyJjNi_C-56" vertex="1">
          <mxGeometry y="110" width="160" height="10" as="geometry" />
        </mxCell>
        <mxCell id="NQRFba9yrne1NyJjNi_C-59" value="+calculateSubtotal()&#xa;+showDetailPurchase()" style="text;strokeColor=none;fillColor=none;align=left;verticalAlign=top;spacingLeft=4;spacingRight=4;overflow=hidden;rotatable=0;points=[[0,0.5],[1,0.5]];portConstraint=eastwest;" parent="NQRFba9yrne1NyJjNi_C-56" vertex="1">
          <mxGeometry y="120" width="160" height="50" as="geometry" />
        </mxCell>
        <mxCell id="NQRFba9yrne1NyJjNi_C-61" value="realizaVenta" style="endArrow=open;html=1;endSize=12;startArrow=diamondThin;startSize=14;startFill=0;edgeStyle=orthogonalEdgeStyle;entryX=1;entryY=0.5;entryDx=0;entryDy=0;exitX=0.008;exitY=0.784;exitDx=0;exitDy=0;exitPerimeter=0;" parent="1" source="NQRFba9yrne1NyJjNi_C-12" target="NQRFba9yrne1NyJjNi_C-49" edge="1">
          <mxGeometry relative="1" as="geometry">
            <mxPoint x="-630" y="338" as="sourcePoint" />
            <mxPoint x="-470" y="338" as="targetPoint" />
          </mxGeometry>
        </mxCell>
        <mxCell id="NQRFba9yrne1NyJjNi_C-62" value="1" style="edgeLabel;resizable=0;html=1;align=left;verticalAlign=top;" parent="NQRFba9yrne1NyJjNi_C-61" connectable="0" vertex="1">
          <mxGeometry x="-1" relative="1" as="geometry">
            <mxPoint x="-24" as="offset" />
          </mxGeometry>
        </mxCell>
        <mxCell id="NQRFba9yrne1NyJjNi_C-63" value="0..n" style="edgeLabel;resizable=0;html=1;align=right;verticalAlign=top;" parent="NQRFba9yrne1NyJjNi_C-61" connectable="0" vertex="1">
          <mxGeometry x="1" relative="1" as="geometry">
            <mxPoint x="33" as="offset" />
          </mxGeometry>
        </mxCell>
        <mxCell id="NQRFba9yrne1NyJjNi_C-64" value="realizaCompra" style="endArrow=open;html=1;endSize=12;startArrow=diamondThin;startSize=14;startFill=0;edgeStyle=orthogonalEdgeStyle;entryX=0;entryY=0.5;entryDx=0;entryDy=0;exitX=1.012;exitY=0.827;exitDx=0;exitDy=0;exitPerimeter=0;" parent="1" source="NQRFba9yrne1NyJjNi_C-7" target="NQRFba9yrne1NyJjNi_C-49" edge="1">
          <mxGeometry x="-0.3104" relative="1" as="geometry">
            <mxPoint x="-730" y="258" as="sourcePoint" />
            <mxPoint x="-740" y="438.0000000000001" as="targetPoint" />
            <mxPoint as="offset" />
            <Array as="points">
              <mxPoint x="-760" y="215" />
              <mxPoint x="-760" y="416" />
            </Array>
          </mxGeometry>
        </mxCell>
        <mxCell id="NQRFba9yrne1NyJjNi_C-65" value="1" style="edgeLabel;resizable=0;html=1;align=left;verticalAlign=top;" parent="NQRFba9yrne1NyJjNi_C-64" connectable="0" vertex="1">
          <mxGeometry x="-1" relative="1" as="geometry">
            <mxPoint x="3" as="offset" />
          </mxGeometry>
        </mxCell>
        <mxCell id="NQRFba9yrne1NyJjNi_C-66" value="0..n" style="edgeLabel;resizable=0;html=1;align=right;verticalAlign=top;" parent="NQRFba9yrne1NyJjNi_C-64" connectable="0" vertex="1">
          <mxGeometry x="1" relative="1" as="geometry">
            <mxPoint x="-16" as="offset" />
          </mxGeometry>
        </mxCell>
        <mxCell id="NQRFba9yrne1NyJjNi_C-67" value="" style="endArrow=diamondThin;endFill=0;endSize=24;html=1;exitX=1;exitY=0.433;exitDx=0;exitDy=0;exitPerimeter=0;entryX=0;entryY=0.815;entryDx=0;entryDy=0;entryPerimeter=0;edgeStyle=elbowEdgeStyle;" parent="1" edge="1">
          <mxGeometry width="160" relative="1" as="geometry">
            <mxPoint x="-270" y="540.3720000000001" as="sourcePoint" />
            <mxPoint x="-210" y="382.51" as="targetPoint" />
          </mxGeometry>
        </mxCell>
        <mxCell id="NQRFba9yrne1NyJjNi_C-68" value="" style="endArrow=diamondThin;endFill=1;endSize=24;html=1;entryX=0;entryY=0.5;entryDx=0;entryDy=0;edgeStyle=elbowEdgeStyle;" parent="1" source="NQRFba9yrne1NyJjNi_C-12" edge="1">
          <mxGeometry width="160" relative="1" as="geometry">
            <mxPoint x="-420" y="348" as="sourcePoint" />
            <mxPoint x="-210" y="365.5" as="targetPoint" />
          </mxGeometry>
        </mxCell>
        <mxCell id="NQRFba9yrne1NyJjNi_C-70" value="1..n" style="edgeLabel;resizable=0;html=1;align=left;verticalAlign=top;" parent="1" connectable="0" vertex="1">
          <mxGeometry x="-270.00000000000017" y="517.998" as="geometry" />
        </mxCell>
        <mxCell id="NQRFba9yrne1NyJjNi_C-71" value="1" style="edgeLabel;resizable=0;html=1;align=left;verticalAlign=top;" parent="1" connectable="0" vertex="1">
          <mxGeometry x="-340.00000000000017" y="177.99800000000005" as="geometry">
            <mxPoint x="81" y="-1" as="offset" />
          </mxGeometry>
        </mxCell>
        <mxCell id="NQRFba9yrne1NyJjNi_C-73" value="contiene" style="endArrow=block;endFill=1;html=1;edgeStyle=orthogonalEdgeStyle;align=left;verticalAlign=top;exitX=-0.017;exitY=0.806;exitDx=0;exitDy=0;exitPerimeter=0;" parent="1" source="NQRFba9yrne1NyJjNi_C-49" target="NQRFba9yrne1NyJjNi_C-57" edge="1">
          <mxGeometry x="-0.2268" y="-25" relative="1" as="geometry">
            <mxPoint x="-730" y="578" as="sourcePoint" />
            <mxPoint x="-570" y="578" as="targetPoint" />
            <mxPoint as="offset" />
            <Array as="points">
              <mxPoint x="-760" y="442" />
              <mxPoint x="-760" y="546" />
            </Array>
          </mxGeometry>
        </mxCell>
        <mxCell id="NQRFba9yrne1NyJjNi_C-74" value="1" style="edgeLabel;resizable=0;html=1;align=left;verticalAlign=bottom;" parent="NQRFba9yrne1NyJjNi_C-73" connectable="0" vertex="1">
          <mxGeometry x="-1" relative="1" as="geometry">
            <mxPoint x="-18" y="23" as="offset" />
          </mxGeometry>
        </mxCell>
        <mxCell id="NQRFba9yrne1NyJjNi_C-76" value="Articulo" style="swimlane;fontStyle=1;align=center;verticalAlign=top;childLayout=stackLayout;horizontal=1;startSize=26;horizontalStack=0;resizeParent=1;resizeParentMax=0;resizeLast=0;collapsible=1;marginBottom=0;" parent="1" vertex="1">
          <mxGeometry x="-430" y="478" width="160" height="180" as="geometry">
            <mxRectangle x="630" y="10" width="100" height="26" as="alternateBounds" />
          </mxGeometry>
        </mxCell>
        <mxCell id="NQRFba9yrne1NyJjNi_C-77" value="-productID: int&#xa;-productName: string&#xa;-productImage: blob&#xa;-price: float&#xa;-quantity: int&#xa;-qualifyAvg: int" style="text;strokeColor=none;fillColor=none;align=left;verticalAlign=top;spacingLeft=4;spacingRight=4;overflow=hidden;rotatable=0;points=[[0,0.5],[1,0.5]];portConstraint=eastwest;" parent="NQRFba9yrne1NyJjNi_C-76" vertex="1">
          <mxGeometry y="26" width="160" height="94" as="geometry" />
        </mxCell>
        <mxCell id="NQRFba9yrne1NyJjNi_C-78" value="" style="line;strokeWidth=1;fillColor=none;align=left;verticalAlign=middle;spacingTop=-1;spacingLeft=3;spacingRight=3;rotatable=0;labelPosition=right;points=[];portConstraint=eastwest;" parent="NQRFba9yrne1NyJjNi_C-76" vertex="1">
          <mxGeometry y="120" width="160" height="10" as="geometry" />
        </mxCell>
        <mxCell id="NQRFba9yrne1NyJjNi_C-79" value="+showItem()&#xa;+calculateQualifying()" style="text;strokeColor=none;fillColor=none;align=left;verticalAlign=top;spacingLeft=4;spacingRight=4;overflow=hidden;rotatable=0;points=[[0,0.5],[1,0.5]];portConstraint=eastwest;" parent="NQRFba9yrne1NyJjNi_C-76" vertex="1">
          <mxGeometry y="130" width="160" height="50" as="geometry" />
        </mxCell>
        <mxCell id="NQRFba9yrne1NyJjNi_C-83" value="Catálogo" style="swimlane;fontStyle=1;align=center;verticalAlign=top;childLayout=stackLayout;horizontal=1;startSize=26;horizontalStack=0;resizeParent=1;resizeParentMax=0;resizeLast=0;collapsible=1;marginBottom=0;" parent="1" vertex="1">
          <mxGeometry x="-210" y="308" width="160" height="150" as="geometry">
            <mxRectangle x="630" y="10" width="100" height="26" as="alternateBounds" />
          </mxGeometry>
        </mxCell>
        <mxCell id="NQRFba9yrne1NyJjNi_C-84" value="-catalogID: int&#xa;-userID_FK: int&#xa;-productID_FK: int" style="text;strokeColor=none;fillColor=none;align=left;verticalAlign=top;spacingLeft=4;spacingRight=4;overflow=hidden;rotatable=0;points=[[0,0.5],[1,0.5]];portConstraint=eastwest;" parent="NQRFba9yrne1NyJjNi_C-83" vertex="1">
          <mxGeometry y="26" width="160" height="84" as="geometry" />
        </mxCell>
        <mxCell id="NQRFba9yrne1NyJjNi_C-85" value="" style="line;strokeWidth=1;fillColor=none;align=left;verticalAlign=middle;spacingTop=-1;spacingLeft=3;spacingRight=3;rotatable=0;labelPosition=right;points=[];portConstraint=eastwest;" parent="NQRFba9yrne1NyJjNi_C-83" vertex="1">
          <mxGeometry y="110" width="160" height="10" as="geometry" />
        </mxCell>
        <mxCell id="NQRFba9yrne1NyJjNi_C-86" value="+showCatalog" style="text;strokeColor=none;fillColor=none;align=left;verticalAlign=top;spacingLeft=4;spacingRight=4;overflow=hidden;rotatable=0;points=[[0,0.5],[1,0.5]];portConstraint=eastwest;" parent="NQRFba9yrne1NyJjNi_C-83" vertex="1">
          <mxGeometry y="120" width="160" height="30" as="geometry" />
        </mxCell>
        <mxCell id="NQRFba9yrne1NyJjNi_C-88" value="1" style="edgeLabel;resizable=0;html=1;align=left;verticalAlign=top;" parent="1" connectable="0" vertex="1">
          <mxGeometry x="-250.00000000000017" y="382.99800000000005" as="geometry">
            <mxPoint x="12" y="6" as="offset" />
          </mxGeometry>
        </mxCell>
        <mxCell id="NQRFba9yrne1NyJjNi_C-89" value="1" style="edgeLabel;resizable=0;html=1;align=left;verticalAlign=bottom;" parent="1" connectable="0" vertex="1">
          <mxGeometry x="-720" y="468.00399999999996" as="geometry">
            <mxPoint x="-87" y="73" as="offset" />
          </mxGeometry>
        </mxCell>
        <mxCell id="DSm0Stork6P05ilONJer-1" value="Review" style="swimlane;fontStyle=1;align=center;verticalAlign=top;childLayout=stackLayout;horizontal=1;startSize=26;horizontalStack=0;resizeParent=1;resizeParentMax=0;resizeLast=0;collapsible=1;marginBottom=0;" parent="1" vertex="1">
          <mxGeometry x="-709" y="568" width="160" height="170" as="geometry">
            <mxRectangle x="630" y="10" width="100" height="26" as="alternateBounds" />
          </mxGeometry>
        </mxCell>
        <mxCell id="DSm0Stork6P05ilONJer-2" value="-reviewID: int&#xa;-userID_Client_FK: int&#xa;-purchaseID_FK: int&#xa;-productID_FK: int&#xa;-qualify: int&#xa;-sumary: string" style="text;strokeColor=none;fillColor=none;align=left;verticalAlign=top;spacingLeft=4;spacingRight=4;overflow=hidden;rotatable=0;points=[[0,0.5],[1,0.5]];portConstraint=eastwest;" parent="DSm0Stork6P05ilONJer-1" vertex="1">
          <mxGeometry y="26" width="160" height="94" as="geometry" />
        </mxCell>
        <mxCell id="DSm0Stork6P05ilONJer-3" value="" style="line;strokeWidth=1;fillColor=none;align=left;verticalAlign=middle;spacingTop=-1;spacingLeft=3;spacingRight=3;rotatable=0;labelPosition=right;points=[];portConstraint=eastwest;" parent="DSm0Stork6P05ilONJer-1" vertex="1">
          <mxGeometry y="120" width="160" height="10" as="geometry" />
        </mxCell>
        <mxCell id="DSm0Stork6P05ilONJer-4" value="+makeReview()&#xa;+showReview()" style="text;strokeColor=none;fillColor=none;align=left;verticalAlign=top;spacingLeft=4;spacingRight=4;overflow=hidden;rotatable=0;points=[[0,0.5],[1,0.5]];portConstraint=eastwest;" parent="DSm0Stork6P05ilONJer-1" vertex="1">
          <mxGeometry y="130" width="160" height="40" as="geometry" />
        </mxCell>
        <mxCell id="DSm0Stork6P05ilONJer-5" value="contiene" style="endArrow=block;endFill=1;html=1;edgeStyle=elbowEdgeStyle;align=left;verticalAlign=top;entryX=1;entryY=0.5;entryDx=0;entryDy=0;exitX=0.997;exitY=0.82;exitDx=0;exitDy=0;exitPerimeter=0;" parent="1" source="NQRFba9yrne1NyJjNi_C-49" target="DSm0Stork6P05ilONJer-2" edge="1">
          <mxGeometry x="-0.0768" y="-20" relative="1" as="geometry">
            <mxPoint x="-500" y="478" as="sourcePoint" />
            <mxPoint x="-520" y="478" as="targetPoint" />
            <Array as="points">
              <mxPoint x="-510" y="538" />
            </Array>
            <mxPoint as="offset" />
          </mxGeometry>
        </mxCell>
        <mxCell id="DSm0Stork6P05ilONJer-6" value="1" style="edgeLabel;resizable=0;html=1;align=left;verticalAlign=bottom;" parent="DSm0Stork6P05ilONJer-5" connectable="0" vertex="1">
          <mxGeometry x="-1" relative="1" as="geometry">
            <mxPoint x="9" y="20" as="offset" />
          </mxGeometry>
        </mxCell>
        <mxCell id="DSm0Stork6P05ilONJer-7" value="1" style="edgeLabel;resizable=0;html=1;align=left;verticalAlign=bottom;" parent="1" connectable="0" vertex="1">
          <mxGeometry x="-540" y="628" as="geometry" />
        </mxCell>
        <mxCell id="DSm0Stork6P05ilONJer-8" value="realizaReview" style="endArrow=block;endFill=1;html=1;edgeStyle=elbowEdgeStyle;align=left;verticalAlign=top;exitX=1;exitY=0.5;exitDx=0;exitDy=0;entryX=0;entryY=0.5;entryDx=0;entryDy=0;" parent="1" source="NQRFba9yrne1NyJjNi_C-9" target="DSm0Stork6P05ilONJer-2" edge="1">
          <mxGeometry x="-0.2991" y="-40" relative="1" as="geometry">
            <mxPoint x="-1020" y="418" as="sourcePoint" />
            <mxPoint x="-760" y="638" as="targetPoint" />
            <Array as="points">
              <mxPoint x="-790" y="468" />
            </Array>
            <mxPoint as="offset" />
          </mxGeometry>
        </mxCell>
        <mxCell id="DSm0Stork6P05ilONJer-9" value="1" style="edgeLabel;resizable=0;html=1;align=left;verticalAlign=bottom;" parent="DSm0Stork6P05ilONJer-8" connectable="0" vertex="1">
          <mxGeometry x="-1" relative="1" as="geometry" />
        </mxCell>
        <mxCell id="DSm0Stork6P05ilONJer-10" value="1" style="edgeLabel;resizable=0;html=1;align=left;verticalAlign=bottom;" parent="1" connectable="0" vertex="1">
          <mxGeometry x="-813" y="297" as="geometry">
            <mxPoint x="79" y="339" as="offset" />
          </mxGeometry>
        </mxCell>
        <mxCell id="Iqm-V7LlStVa56TfB5gL-1" value="contiene" style="endArrow=block;endFill=1;html=1;edgeStyle=elbowEdgeStyle;align=left;verticalAlign=top;exitX=0;exitY=0.5;exitDx=0;exitDy=0;" parent="1" source="NQRFba9yrne1NyJjNi_C-77" edge="1">
          <mxGeometry x="-0.081" y="-19" relative="1" as="geometry">
            <mxPoint x="-500" y="558" as="sourcePoint" />
            <mxPoint x="-547" y="668" as="targetPoint" />
            <Array as="points">
              <mxPoint x="-460.52" y="653.12" />
            </Array>
            <mxPoint as="offset" />
          </mxGeometry>
        </mxCell>
        <mxCell id="Iqm-V7LlStVa56TfB5gL-2" value="tiene" style="edgeLabel;resizable=0;html=1;align=left;verticalAlign=bottom;" parent="Iqm-V7LlStVa56TfB5gL-1" connectable="0" vertex="1">
          <mxGeometry x="-1" relative="1" as="geometry">
            <mxPoint x="180" y="-283" as="offset" />
          </mxGeometry>
        </mxCell>
        <mxCell id="Iqm-V7LlStVa56TfB5gL-3" value="0..n" style="edgeLabel;resizable=0;html=1;align=right;verticalAlign=top;" parent="1" connectable="0" vertex="1">
          <mxGeometry x="-519.9999998683777" y="648" as="geometry" />
        </mxCell>
        <mxCell id="Iqm-V7LlStVa56TfB5gL-4" value="1" style="edgeLabel;resizable=0;html=1;align=left;verticalAlign=bottom;" parent="1" connectable="0" vertex="1">
          <mxGeometry x="-530" y="638" as="geometry">
            <mxPoint x="77" y="-64" as="offset" />
          </mxGeometry>
        </mxCell>
        <mxCell id="Iqm-V7LlStVa56TfB5gL-7" value="pertenece" style="edgeLabel;resizable=0;html=1;align=left;verticalAlign=bottom;" parent="1" connectable="0" vertex="1">
          <mxGeometry x="-260" y="488" as="geometry" />
        </mxCell>
      </root>
    </mxGraphModel>
  </diagram>
</mxfile>
